<svg xmlns="http://www.w3.org/2000/svg" height="512" width="512"><defs><path id="badgeStar" d="M31.8 1.7c0 23.1-8 31.1-31.2 31.1 23.1 0 31.2 8 31.2 31.1 0-23.1 8-31.1 31.2-31.1-23.2 0-31.2-8-31.2-31.1z"/><path id="badgePath" fill="none" d="M96 256a160 160 0 01320 0 160 160 0 01-320 0"/><style>.badgeCenterText,text{font-family:&quot;Century Gothic&quot;,CenturyGothic,AppleGothic,sans-serif}.badgeCenterText{font-size:80px;font-weight:700}</style></defs><path d="M472 256l14.331-27.961-20.559-23.753 7.208-30.577-25.677-18.102-.356-31.413-29.264-11.428-7.837-30.422-31.142-4.132-14.865-27.677-31.226 3.444L311.53 30.69l-29.478 10.864L256 24l-26.052 17.554-29.479-10.864-21.084 23.289-31.225-3.443-14.865 27.677-31.143 4.132-7.836 30.423-29.264 11.428-.356 31.413L39.02 173.71l7.208 30.577-20.56 23.752L40 256l-14.331 27.961 20.559 23.753-7.208 30.577 25.677 18.102.356 31.413 29.264 11.428 7.837 30.422 31.142 4.132 14.865 27.677 31.226-3.444 21.083 23.289 29.478-10.864L256 488l26.052-17.554 29.479 10.864 21.084-23.289 31.225 3.443 14.865-27.677 31.143-4.132 7.836-30.423 29.264-11.428.356-31.413 25.676-18.101-7.208-30.577 20.56-23.752z" fill="#D9B869"/><circle cx="255" cy="255" stroke="#B99D5A" fill="none" stroke-width=".5" r="196"/><circle cx="257" cy="257" stroke="#EDDCB5" fill="none" stroke-width=".5" r="196"/><circle cx="256" cy="256" stroke="#8F5B0F" fill="none" stroke-width=".5" r="196"/><g class="st200"><text class="badgeCenterText" fill="#EDDCB5" x="259.5" y="265" dominant-baseline="middle" text-anchor="middle">WCAG</text><text class="badgeCenterText" fill="#B99D5A" x="261" y="267" dominant-baseline="middle" text-anchor="middle">WCAG</text><text class="badgeCenterText" fill="#8F5B0F" x="260" y="266" dominant-baseline="middle" text-anchor="middle">WCAG</text></g><text><textPath href="#badgePath" fill="#6C4300" font-size="36">DIGITALE TOEGANKELIJKHEID</textPath></text><g><use x="185" y="319.5" href="#badgeStar" fill="#EDDCB5"/><use x="187" y="321" href="#badgeStar" fill="#B99D5A"/><use x="186" y="320" href="#badgeStar" fill="#8F5B0F"/></g><g><use x="262" y="319.5" href="#badgeStar" fill="#EDDCB5"/><use x="264" y="321" href="#badgeStar" fill="#B99D5A"/><use x="263" y="320" href="#badgeStar" fill="#8F5B0F"/></g></svg>