<?xml version="1.0" encoding="utf-8" standalone="no"?><!-- Generator: Adobe Illustrator 21.1.0, SVG Export Plug-In . SVG Version: 6.00 Build 0)  --><svg xmlns="http://www.w3.org/2000/svg" xmlns:xlink="http://www.w3.org/1999/xlink" height="69.96px" id="Laag_1" style="enable-background:new 0 0 120 69.96;" version="1.1" viewBox="0 0 120 69.96" width="120px" x="0px" xml:space="preserve" y="0px">
<style type="text/css">
	.st0{fill:#154273;}
	.st1{fill:#FFFFFF;}
</style>
<g>
	<rect class="st0" height="60" width="40"/>
</g>
<path class="st1" d="M20.72,41.89h-0.7v-1.93h0.7V41.89z M23.86,33.38h-0.7v-1.93h0.7V33.38z M10.97,30.05c-0.05,0-0.41,0-0.41,0.08  c0,0.07,0.17,0.04,0.41,0.08c0.56,0.1,0.78,0.38,1.17,0.38c0.35,0,0.72-0.24,0.58-0.75c-0.02-0.09-0.07-0.07-0.08-0.01  c-0.05,0.23-0.34,0.36-0.63,0.36C11.63,30.18,11.55,30.05,10.97,30.05z M7.14,31.98c0.06,0.08,0.72,0.94-0.29,1.26  c-0.04,0.01-0.06,0.06,0.01,0.09c0.74,0.31,1.11-0.26,1.11-0.26c0.37,0.86-0.2,1.33-0.2,1.33c0.08,0.15,0.44,0.41,0.98,0.53  c0.2-0.11,0.49-0.32,0.61-0.64c0,0,0.15,0.37,0.01,0.73c1.52,0.14,2.06-1.08,3.23-0.86c0.03,0.01,0.05-0.01,0.05-0.05  c0-0.75-0.46-2.12-1.91-2.4c-1.45-0.28-1.06-0.87-1.06-0.87c0.61-0.03,0.96,0.24,0.96,0.24c0.11-0.18-0.05-0.38-0.05-0.38  c0.06-0.07,0.09-0.32,0.09-0.32c-0.69,0-0.87-0.15-0.87-0.15c-0.11-0.41,0.18-0.98,1.2-0.37c0.25-0.23,0.24-0.57,0.24-0.57  c0.08-0.04,0.12-0.16,0.12-0.21c0-0.17-0.82-0.63-1.03-0.68c-0.05-0.25-0.37-0.6-1.33-0.48c-0.45,0.06-0.78-0.06-0.63-0.33  c0.03-0.04-0.06-0.05-0.1-0.01c-0.11,0.11-0.25,0.4,0.15,0.6c0.44,0.22,0.47,0.66,0.47,0.73c0.01,0.09-0.11,0.1-0.13,0.01  c-0.2-0.74-1.22-0.91-1.82-0.51c0.04,0.4,0.46,0.66,0.7,0.66c0.14,0,0.32-0.13,0.32-0.32c0-0.09,0.05-0.08,0.07-0.01  c0.1,0.27-0.29,0.81-0.88,0.48c-0.59,0.59-0.36,1.32-0.3,1.59c0.11,0.48-0.13,0.95-0.57,0.73c-0.02-0.01-0.04-0.02-0.04,0.03  C6.27,31.9,6.67,32.24,7.14,31.98z M10.4,28.99c-0.28,0.31-0.73,0.24-0.84-0.27C10.13,28.69,10.38,28.74,10.4,28.99z M28.06,30.18  c-0.3,0-0.58-0.13-0.63-0.36c-0.01-0.06-0.06-0.08-0.08,0.01c-0.14,0.51,0.22,0.75,0.58,0.75c0.39,0,0.61-0.28,1.17-0.38  c0.25-0.04,0.41,0,0.41-0.08c0-0.07-0.36-0.08-0.41-0.08C28.5,30.05,28.42,30.18,28.06,30.18z M33.78,31.59  c0-0.05-0.02-0.04-0.04-0.03c-0.44,0.22-0.67-0.25-0.57-0.73c0.06-0.27,0.3-1-0.3-1.59c-0.58,0.33-0.98-0.21-0.88-0.48  c0.03-0.07,0.07-0.08,0.07,0.01c0,0.19,0.19,0.32,0.32,0.32c0.24,0,0.66-0.26,0.7-0.66c-0.6-0.4-1.62-0.24-1.82,0.51  c-0.03,0.09-0.14,0.08-0.13-0.01c0-0.06,0.03-0.51,0.47-0.73c0.4-0.2,0.25-0.5,0.15-0.6c-0.04-0.04-0.12-0.03-0.1,0.01  c0.15,0.26-0.17,0.38-0.63,0.33c-0.96-0.13-1.28,0.23-1.33,0.48c-0.21,0.05-1.03,0.51-1.03,0.68c0,0.05,0.05,0.17,0.12,0.21  c0,0-0.02,0.35,0.24,0.57c1.02-0.62,1.3-0.04,1.2,0.37c0,0-0.18,0.15-0.87,0.15c0,0,0.03,0.25,0.09,0.32c0,0-0.16,0.2-0.05,0.38  c0,0,0.35-0.27,0.96-0.24c0,0,0.39,0.59-1.06,0.87c-1.45,0.28-1.91,1.65-1.91,2.4c0,0.04,0.02,0.06,0.05,0.05  c1.17-0.22,1.71,1,3.23,0.86c-0.13-0.36,0.01-0.73,0.01-0.73c0.12,0.32,0.41,0.53,0.61,0.64c0.54-0.12,0.9-0.38,0.98-0.53  c0,0-0.57-0.48-0.2-1.33c0,0,0.36,0.57,1.11,0.26c0.07-0.03,0.05-0.07,0.01-0.09c-1.01-0.33-0.35-1.18-0.29-1.26  C33.39,32.24,33.78,31.9,33.78,31.59z M30.49,28.72c-0.11,0.51-0.56,0.58-0.84,0.27C29.67,28.74,29.92,28.69,30.49,28.72z   M19.76,20.17c0,0.13,0.06,0.24,0.1,0.3c0.09,0.13,0.08,0.2,0.03,0.24c-0.04,0.04-0.11,0.06-0.24-0.03c-0.06-0.04-0.17-0.1-0.3-0.1  c-0.22,0-0.33,0.14-0.33,0.27c0,0.12,0.11,0.27,0.33,0.27c0.13,0,0.24-0.06,0.3-0.1c0.13-0.09,0.2-0.08,0.24-0.03  c0.04,0.04-0.02,0.48-0.07,0.83c-0.36,0.08-0.54,0.37-0.54,0.54c0,0.44,0.47,0.69,0.74,0.84c0.27-0.15,0.74-0.4,0.74-0.84  c0-0.17-0.18-0.46-0.54-0.54c-0.05-0.35-0.11-0.79-0.07-0.83c0.04-0.04,0.11-0.06,0.24,0.03c0.06,0.04,0.17,0.1,0.3,0.1  c0.22,0,0.33-0.14,0.33-0.27c0-0.12-0.11-0.27-0.33-0.27c-0.13,0-0.24,0.06-0.3,0.1c-0.13,0.09-0.2,0.08-0.24,0.03  c-0.04-0.04-0.06-0.11,0.03-0.24c0.04-0.06,0.1-0.18,0.1-0.3c0-0.22-0.14-0.33-0.27-0.33C19.9,19.84,19.76,19.95,19.76,20.17z   M20.03,23.42c-0.29,0-0.53,0.24-0.53,0.53c0,0.29,0.24,0.53,0.53,0.53c0.29,0,0.53-0.24,0.53-0.53  C20.56,23.66,20.32,23.42,20.03,23.42z M20.03,28.55c2.13,0,3.34,0.41,3.34,0.41c0.01-1.08,0-1.68,0.62-1.59  c-0.34-0.91,1.12-1.26,1.12-2.44c0-0.78-0.55-0.87-0.71-0.87c-0.48,0-0.41,0.31-0.82,0.31c-0.05,0-0.1-0.01-0.1,0.02  c0,0.14,0.12,0.37,0.3,0.37c0.25,0,0.26-0.25,0.45-0.25c0.08,0,0.2,0.07,0.2,0.32c0,0.5-0.33,1.06-0.72,1.49  c-0.09-0.12-0.21-0.2-0.36-0.2c-0.23,0-0.43,0.24-0.43,0.54c0,0.11,0.02,0.19,0.06,0.28c-0.13,0.07-0.24,0.11-0.33,0.11  c-0.18,0-0.44-0.07-0.44-0.46c0-0.86,1.15-1.61,1.15-2.69c0-0.52-0.35-1.03-1.07-1.03c-0.78,0-0.63,0.71-1.3,0.71  c-0.03,0-0.06,0.01-0.06,0.04c0,0.04,0.12,0.44,0.46,0.44c0.37,0,0.48-0.64,0.8-0.64c0.12,0,0.31,0.07,0.31,0.51  c0,0.34-0.17,0.88-0.41,1.41c-0.09-0.09-0.2-0.15-0.34-0.15c-0.29,0-0.49,0.28-0.49,0.61c0,0.21,0.08,0.41,0.23,0.55  c-0.17,0.22-0.34,0.39-0.58,0.39c-0.46,0-0.67-0.26-0.67-0.55c0-0.31,0.57-0.42,0.57-0.91c0-0.33-0.21-0.51-0.42-0.51  c-0.22,0-0.33,0.15-0.36,0.15c-0.02,0-0.14-0.15-0.36-0.15c-0.21,0-0.42,0.19-0.42,0.51c0,0.48,0.57,0.6,0.57,0.91  c0,0.29-0.2,0.55-0.67,0.55c-0.24,0-0.41-0.18-0.58-0.39c0.14-0.13,0.23-0.34,0.23-0.55c0-0.33-0.21-0.61-0.49-0.61  c-0.13,0-0.25,0.06-0.34,0.15c-0.24-0.52-0.41-1.07-0.41-1.41c0-0.44,0.18-0.51,0.31-0.51c0.33,0,0.43,0.64,0.8,0.64  c0.35,0,0.46-0.39,0.46-0.44c0-0.03-0.02-0.04-0.06-0.04c-0.67,0-0.53-0.71-1.3-0.71c-0.72,0-1.07,0.52-1.07,1.03  c0,1.08,1.15,1.84,1.15,2.69c0,0.38-0.26,0.46-0.44,0.46c-0.09,0-0.2-0.04-0.33-0.11c0.04-0.09,0.06-0.17,0.06-0.28  c0-0.3-0.2-0.54-0.43-0.54c-0.15,0-0.27,0.08-0.36,0.2c-0.39-0.43-0.72-0.99-0.72-1.49c0-0.26,0.12-0.32,0.2-0.32  c0.19,0,0.19,0.25,0.45,0.25c0.19,0,0.3-0.23,0.3-0.37c0-0.04-0.05-0.02-0.1-0.02c-0.41,0-0.34-0.31-0.82-0.31  c-0.16,0-0.71,0.09-0.71,0.87c0,1.18,1.46,1.54,1.12,2.44c0.62-0.09,0.61,0.51,0.62,1.59C16.69,28.95,17.89,28.55,20.03,28.55z   M16.11,30.14c-0.58,0.13-1,0.25-1.18,0.3c0.01-0.26,0.11-0.49,0.34-0.55c0.03-0.01,0.04-0.05,0.01-0.06  c-0.52-0.34-0.8,0.32-0.8,0.34c-0.18-0.01-0.46,0.04-0.46,0.29c0,0.74-1.7,1.15-2.09,1.21c0.69,0.27,0.98,1.14,0.98,1.14  c0.5-0.5,1.09-0.95,1.22-0.95c0.13,0,0.18,0.17,0.2,0.27c0,0.03,0.03,0.04,0.05,0.01c0.26-0.39,0.14-0.48,0.12-0.6  c-0.02-0.09,0.01-0.44,0.39-0.39v4.95l-0.2,0.04c-0.09,0.02-0.81-0.6-1.64-1.17c-0.83-0.57-1.27-0.23-2.22,0.28  c-1.24,0.67-2.49,0.06-2.49,0.06c-1.07,0.76-1.43,2.96-1.43,2.96c-0.21,0.09-0.56,0.19-0.9,0.19c-0.81,0-0.96-0.49-0.96-0.79  c0-1.26,1.57-1.8,1.57-3.03c0-0.3-0.14-1.52-1.65-1.52c-0.19,0-1.35,0-1.35,0c-0.57,0-0.71-0.41-0.79-0.56  c-0.03-0.06-0.09-0.03-0.07,0.02c0.04,0.1-0.07,0.26-0.07,0.58c0,0.5,0.3,0.81,0.85,0.81c0.25,0,0.49-0.07,0.56-0.12  c0.05-0.03,0.08,0.02,0.05,0.05c-0.24,0.28-0.26,0.8-0.16,0.93c0.02,0.03,0.05,0.02,0.06,0c0.13-0.53,0.63-1.03,1.3-1.03  c0.82,0,0.82,0.7,0.82,0.87c0,1.01-1.77,1.75-1.77,3.13c0,1.41,1.49,1.71,2.35,1.48c-0.05,1.41-1.66,1.89-1.71,0.88  c0-0.05-0.04-0.06-0.06,0c-0.2,0.5-0.12,0.93,0.5,1.07c0.04,0.01,0.02,0.03-0.02,0.06c-0.62,0.39-0.28,1.95-0.25,2.4  c0.05,0.66-0.61,0.58-0.66,0.56c-0.03-0.01-0.05,0-0.01,0.06c0.46,0.57,1.04,0.05,1.04,0.05c0.43,0.14,0.16,0.51-0.12,0.7  c-0.05,0.03-0.04,0.06,0.01,0.06c0.06,0,0.73,0.06,0.85-0.47c0.3,0.35,0.73,0.23,0.82,0.18c0.13-0.07,0.76-0.29,0.82,0.41  c0,0.05,0.03,0.02,0.05-0.01c0.47-0.6-0.03-0.96-0.32-1.01c0.02-0.03,0.4-0.35,0.74,0.09c0.02,0.03,0.04,0.04,0.05-0.02  c0.04-0.76-0.58-0.83-0.97-0.5c-0.02-0.08-0.15-0.5,0.45-0.49c0.01,0,0.04-0.02,0.01-0.05c-0.47-0.49-0.85-0.04-0.94,0.06  c-0.21,0.25-0.73,0.15-0.77,0.14c0.16-2.63,2.48-1.7,2.8-2.98c0.01-0.07,0.05-0.04,0.05-0.02c0.09,0.31,0.87,0.36,1.02-0.26  c0.01-0.04,0-0.07-0.02-0.04c-0.67,0.67-2.18-1.42-0.12-3.13c1.76-1.45,3.34-0.64,3.94-0.16c0.03,0.21-0.09,0.28-0.17,0.3  c-0.03,0.01-0.04,0.04,0.01,0.05c0.17,0.06,0.4,0.04,0.51-0.11c0.38,0.26,0.05,0.6-0.1,0.69c-0.04,0.02-0.02,0.05,0.01,0.06  c0.35,0.06,0.63-0.29,0.65-0.5l0.06,0.03v1.49c0,2.13,2.45,2.42,5.15,4.23c2.69-1.8,5.15-2.1,5.15-4.23V37.4l0.06-0.03  c0.01,0.2,0.3,0.56,0.65,0.5c0.03-0.01,0.05-0.03,0.01-0.06c-0.15-0.09-0.48-0.42-0.1-0.69c0.11,0.16,0.35,0.18,0.51,0.11  c0.05-0.02,0.04-0.04,0.01-0.05c-0.08-0.03-0.2-0.09-0.17-0.3c0.6-0.48,2.18-1.29,3.94,0.16c2.06,1.7,0.55,3.79-0.12,3.13  c-0.03-0.03-0.03,0-0.02,0.04c0.14,0.61,0.93,0.57,1.02,0.26c0.01-0.02,0.04-0.05,0.05,0.02c0.32,1.28,2.63,0.35,2.8,2.98  c-0.05,0.01-0.57,0.1-0.77-0.14c-0.09-0.11-0.47-0.56-0.94-0.06c-0.03,0.03,0,0.05,0.01,0.05c0.6-0.01,0.47,0.41,0.45,0.49  c-0.4-0.33-1.01-0.26-0.97,0.5c0,0.06,0.03,0.05,0.05,0.02c0.34-0.44,0.72-0.12,0.75-0.09c-0.28,0.04-0.79,0.41-0.32,1.01  c0.02,0.03,0.05,0.06,0.05,0.01c0.06-0.71,0.69-0.48,0.82-0.41c0.09,0.05,0.53,0.18,0.82-0.18c0.12,0.53,0.79,0.48,0.85,0.47  c0.05,0,0.05-0.03,0.01-0.06c-0.29-0.19-0.56-0.56-0.12-0.7c0,0,0.57,0.52,1.04-0.05c0.04-0.05,0.01-0.07-0.01-0.06  c-0.05,0.02-0.71,0.1-0.66-0.56c0.03-0.46,0.37-2.01-0.25-2.4c-0.04-0.03-0.06-0.05-0.02-0.06c0.63-0.14,0.71-0.58,0.5-1.07  c-0.03-0.06-0.06-0.05-0.06,0c-0.05,1.01-1.66,0.53-1.71-0.88c0.86,0.22,2.35-0.08,2.35-1.48c0-1.39-1.77-2.13-1.77-3.13  c0-0.17,0-0.87,0.82-0.87c0.67,0,1.17,0.5,1.3,1.03c0.01,0.02,0.03,0.03,0.06,0c0.1-0.13,0.08-0.65-0.16-0.93  c-0.02-0.03,0-0.08,0.05-0.05c0.08,0.05,0.31,0.12,0.56,0.12c0.55,0,0.85-0.3,0.85-0.81c0-0.31-0.11-0.47-0.06-0.58  c0.02-0.05-0.04-0.08-0.07-0.02c-0.08,0.16-0.22,0.56-0.79,0.56c-0.01,0-1.16,0-1.35,0c-1.51,0-1.65,1.22-1.65,1.52  c0,1.24,1.57,1.78,1.57,3.03c0,0.3-0.15,0.79-0.96,0.79c-0.33,0-0.69-0.1-0.9-0.19c0,0-0.36-2.2-1.43-2.96c0,0-1.25,0.61-2.49-0.06  c-0.95-0.51-1.39-0.85-2.22-0.28c-0.83,0.57-1.55,1.19-1.64,1.17l-0.2-0.04v-4.95c0.38-0.04,0.41,0.3,0.39,0.39  c-0.02,0.12-0.15,0.2,0.12,0.6c0.02,0.03,0.05,0.02,0.05-0.01c0.01-0.1,0.06-0.27,0.2-0.27c0.13,0,0.72,0.44,1.22,0.95  c0,0,0.29-0.87,0.98-1.14c-0.39-0.06-2.09-0.47-2.09-1.21c0-0.25-0.28-0.31-0.46-0.29c-0.01-0.02-0.29-0.68-0.8-0.34  c-0.03,0.02-0.02,0.06,0.01,0.06c0.23,0.05,0.33,0.29,0.34,0.55c-0.49-0.15-2.6-0.74-5.1-0.74c-1.21,0-2.33,0.14-3.22,0.3v1.72h-0.7  V30.14L16.11,30.14 M11.5,47.72c-0.18-0.07-0.31-0.19-0.31-0.44v-1.07c-0.31-0.11-1.14-0.43-2.8-0.43c-1.38,0-1.82,0.31-1.84,0.42  l-0.37,2.03c0,0,0.56-0.51,2.57-0.38c2.42,0.15,4.92,1.58,4.92,0.06v-0.89C11.78,47.03,11.5,47.63,11.5,47.72z M26.38,47.03v0.89  c0,1.52,2.5,0.09,4.92-0.06c2.01-0.13,2.57,0.38,2.57,0.38l-0.37-2.03c-0.02-0.11-0.45-0.42-1.84-0.42c-1.66,0-2.5,0.32-2.8,0.43  v1.07c0,0.24-0.12,0.36-0.31,0.44C28.55,47.63,28.27,47.03,26.38,47.03z M20.03,46.11c3.89,0,7.84,0.2,8.36,0.79  c0.04,0.05,0.06,0,0.06-0.04l0-2.06c0-0.6-4.08-0.95-8.42-0.95c-4.34,0-8.42,0.35-8.42,0.95l0,2.06c0,0.04,0.02,0.08,0.06,0.04  C12.18,46.31,16.13,46.11,20.03,46.11z M16.56,36.38l-0.39-0.1l-0.03,0.05l-0.46-0.2c0,0,0.34,0,0.41,0c0.04,0,0.04-0.02,0.02-0.04  c-0.19-0.18-0.35-0.34-0.35-0.34s0.19,0.07,0.45,0.17c0.03,0.01,0.04-0.01,0.03-0.03c-0.13-0.19-0.3-0.44-0.3-0.44  s0.37,0.25,0.44,0.3c0.02,0.02,0.04,0,0.03-0.02c-0.1-0.24-0.21-0.52-0.21-0.52l0.4,0.38c0.02,0.02,0.04,0.01,0.03-0.02  c-0.04-0.18-0.11-0.52-0.11-0.52l0.3,0.43c0.02,0.03,0.04,0.02,0.04-0.01c0-0.08,0.01-0.47,0.01-0.47s0.12,0.29,0.19,0.43  c0.01,0.03,0.03,0.03,0.05-0.01c0.02-0.05,0.15-0.37,0.15-0.37l0.02,0.49l-0.07,0.01l-0.08,0.59C17.71,36,18.45,35,19.01,35  c0.67,0,0.91,0.78,2.15,0.39c0.31,0.46,0.42,0.86,0.54,1.42c0.48,0.45,1.15,0.3,1.15-0.18c0-0.64-0.7-0.76-0.7-1.43  c0-0.3,0.21-0.73,0.78-0.73c0.3,0,0.74,0.13,1,0.13c0.3,0,0.37-0.22,0.4-0.31c0.03-0.07,0.11-0.05,0.1,0.01  c-0.01,0.06,0.03,0.15,0.03,0.29c0,0.42-0.61,0.48-0.69,0.43c-0.03-0.02-0.05,0.01-0.03,0.03c0.09,0.07,0.07,0.33-0.04,0.49  c-0.01,0.02-0.03,0.01-0.03,0c-0.07-0.3-0.42-0.68-0.73-0.68c-0.12,0-0.34,0.07-0.34,0.33c0,0.38,0.76,0.73,0.76,1.51  c0,0.82-0.81,1.01-1.63,0.81c0.03,0.77,1.18,1.24,1.21,0.68c0-0.04,0.02-0.01,0.03,0c0.17,0.24,0.09,0.42-0.13,0.51  c0.2,0.09,0.24,0.5,0.3,0.74c0.09,0.36,0.47,0.16,0.49,0.15c0.02-0.01,0.03,0,0.02,0.02c-0.15,0.38-0.53,0.24-0.53,0.24  c-0.2,0.14,0.04,0.27,0.23,0.33c0.03,0.01,0.03,0.03,0,0.04c-0.14,0.05-0.43,0.14-0.57-0.1c-0.1,0.25-0.32,0.25-0.4,0.25  c-0.15,0-0.25,0.15-0.21,0.36c0,0.02-0.01,0.02-0.02,0.01c-0.36-0.24-0.15-0.51-0.01-0.58c-0.02-0.01-0.27-0.12-0.37,0.17  c-0.01,0.02-0.02,0.02-0.03,0c-0.15-0.41,0.18-0.53,0.43-0.43c-0.02-0.06-0.14-0.26-0.47-0.2c-0.01,0-0.02,0-0.01-0.02  c0.05-0.13,0.21-0.31,0.5-0.12c0.15,0.09,0.41-0.04,0.43-0.05c-0.52-1.03-1.52-0.17-1.75-0.98c0-0.02-0.02-0.03-0.04,0.01  c-0.05,0.17-0.49,0.18-0.57-0.15c-0.01-0.03,0-0.03,0.02-0.01c0.06,0.06,0.2,0.12,0.38-0.14c0.12-0.17,0.14-0.4,0.14-0.56  c0-0.63-0.63-1.68-1.6-1.68c-0.62,0-1.28,0.24-1.77,0.6l0.46,0.11c-0.04,0.46-0.49,0.73-0.9,0.62l0.07-0.53  C16.98,36.8,16.8,36.86,16.7,37c-0.01,0.01-0.02,0.01-0.02,0c-0.08-0.3,0.16-0.45,0.24-0.49c0.01-0.01,0.01-0.01-0.01-0.01  c-0.22-0.01-0.35,0.15-0.38,0.21c-0.01,0.01-0.02,0.01-0.02,0C16.49,36.64,16.45,36.49,16.56,36.38z M17.92,39.96  c-0.18,0.21-0.33,0.01-0.56,0.01c-0.22,0-0.25,0.18-0.26,0.25c0,0.01-0.01,0.02-0.02,0c-0.25-0.34,0.03-0.52,0.19-0.54  c-0.02-0.02-0.26-0.19-0.42,0.04c-0.01,0.02-0.03,0.01-0.03-0.01c-0.01-0.42,0.32-0.45,0.54-0.26c0.04-0.16-0.06-0.26-0.24-0.27  c-0.02,0-0.02-0.01-0.02-0.02c0.07-0.08,0.15-0.12,0.22-0.12c0.23,0,0.26,0.29,0.41,0.29c0.23,0,0.55-0.31,0.58-0.34  c-0.01-0.02-0.22-0.6-0.18-0.96c0-0.01-0.01-0.02-0.02-0.01c-0.11,0.06-0.39,0.06-0.39-0.28c0-0.03,0.01-0.03,0.02-0.01  c0.12,0.17,0.32-0.02,0.42-0.13c0.11-0.12,0.68-0.95,1.44-0.95c0.17,0,0.38,0.09,0.56,0.21c-0.26,0.32,0,0.63,0.19,0.59  c0.02,0,0.03,0.02,0.01,0.02c-1.01,0.38-1.46,0.53-1.46,1.37c0,0.44,0.15,0.68,0.41,0.63c0.02-0.01,0.02,0,0.01,0.02  c-0.09,0.11-0.2,0.15-0.29,0.15c-0.21,0-0.25-0.11-0.36-0.11c-0.12,0-0.49,0.22-0.49,0.41c0,0.07,0.04,0.16,0.18,0.25  c0.01,0.01,0,0.01,0,0.01C18.28,40.22,17.99,40.24,17.92,39.96z M20.57,31.76c-0.32-0.02-0.52,0.05-0.51,0.15  C20.22,32.07,20.42,32.05,20.57,31.76z M19.41,32.54c0.22-0.06,0.47-0.03,0.49-0.02c0.03,0.01,0.03,0.06-0.01,0.07  c-0.46,0.06-0.49,0.27-0.78,0.27c-0.2,0-0.41-0.2-0.33-0.49c0.01-0.04,0.04-0.04,0.05,0C18.86,32.49,19.04,32.63,19.41,32.54z   M13.38,42.82c0.31,0.39,0.6,0.02,1.01,0.02c0.2,0,0.44,0.07,0.48,0.46c0,0.02,0.02,0.03,0.04,0c0.44-0.6-0.06-0.94-0.35-0.98  c0.06-0.06,0.49-0.32,0.76,0.07c0.01,0.02,0.04,0.01,0.04-0.01c0-0.76-0.57-0.81-0.98-0.48c-0.08-0.3,0.15-0.49,0.43-0.49  c0.03,0,0.05-0.02,0.03-0.04c-0.51-0.55-0.89,0.14-0.98,0.25c-0.2,0.27-0.93-0.24-1.22-0.54c0,0,0.64-0.67,0.64-1.29  c0-0.04,0-0.09,0-0.11c0-0.02,0.01-0.03,0.03-0.02c0.06,0.04,0.15,0.06,0.24,0.06c0.15,0,0.42-0.05,0.42-0.57  c0-0.04-0.02-0.04-0.03-0.01c-0.08,0.11-0.16,0.13-0.23,0.13c-0.52,0-1.6-1.73-2.88-1.73c-0.33,0-0.96,0.24-1.28,0.59  c0.15,0.09,0.18,0.28,0.17,0.41c-0.02,0.22-0.2,0.33-0.38,0.38c-0.03,0.01-0.03,0.03,0,0.04c0.64,0.25,1.82,0.69,2.08,0.92  c0.32,0.27,0.25,0.79,0.07,1.5c-0.18,0.68-0.55,0.59-0.69,0.57c-0.02,0-0.03,0.01-0.01,0.03c0.17,0.21,0.37,0.28,0.54,0.28  c0.33,0,0.46-0.21,0.63-0.21c0.29,0,0.9,0.42,0.9,0.74c0,0.18-0.14,0.34-0.32,0.46c-0.01,0.01-0.01,0.02,0.01,0.03  C12.7,43.29,13.27,43.34,13.38,42.82z M27.49,43.27c0.02,0,0.02-0.02,0.01-0.03c-0.18-0.12-0.32-0.28-0.32-0.46  c0-0.32,0.61-0.74,0.9-0.74c0.17,0,0.3,0.21,0.63,0.21c0.17,0,0.38-0.07,0.54-0.28c0.01-0.02,0.01-0.03-0.01-0.03  c-0.14,0.02-0.52,0.12-0.69-0.57c-0.18-0.71-0.24-1.23,0.07-1.5c0.27-0.23,1.44-0.67,2.08-0.92c0.03-0.01,0.03-0.04,0-0.04  c-0.18-0.05-0.35-0.16-0.38-0.38c-0.02-0.14,0.01-0.32,0.17-0.41c-0.32-0.34-0.95-0.59-1.28-0.59c-1.28,0-2.36,1.73-2.88,1.73  c-0.06,0-0.15-0.02-0.22-0.13c-0.02-0.02-0.04-0.03-0.04,0.01c0,0.52,0.28,0.57,0.42,0.57c0.08,0,0.17-0.03,0.24-0.06  c0.02-0.01,0.03,0,0.03,0.02c0,0.02,0,0.07,0,0.11c0,0.62,0.64,1.29,0.64,1.29c-0.29,0.3-1.02,0.81-1.22,0.54  c-0.09-0.11-0.47-0.79-0.98-0.25c-0.02,0.02-0.01,0.04,0.03,0.04c0.29,0,0.51,0.2,0.43,0.49c-0.41-0.33-0.98-0.28-0.98,0.48  c0,0.03,0.03,0.04,0.04,0.01c0.27-0.39,0.7-0.13,0.76-0.07c-0.29,0.04-0.79,0.38-0.35,0.98c0.02,0.03,0.04,0.02,0.04,0  c0.05-0.39,0.29-0.46,0.48-0.46c0.4,0,0.7,0.37,1.01-0.02C26.78,43.34,27.35,43.29,27.49,43.27z M17.16,33.29  c-0.04,0.06-0.18,0-0.23-0.03c-0.01-0.01-0.01,0-0.01,0.01c0.03,0.07,0.16,0.29,0.35,0.29c0.09,0,0.21-0.05,0.25-0.11  c0,0,0.75,0.24,1.12,0.35c-0.14,0.19-0.23,0.42-0.25,0.67c-0.3-0.18-1.5-0.83-1.5-0.83l-0.37,0.51c-0.06,0.08-0.36-0.13-0.3-0.22  l0.28-0.39c-0.09-0.1-0.32-0.04-0.38-0.02c-0.01,0-0.02,0-0.01-0.02c0.04-0.08,0.18-0.31,0.53-0.21c0-0.22-0.32-0.15-0.4-0.12  c-0.01,0-0.01,0,0-0.01c0.09-0.09,0.35-0.3,0.64-0.13l0.13-0.18l-0.26-0.27l0.16-0.22l0.18,0.24l1.38-1.9  c0.03-0.05,0.31-0.13,0.41-0.15c0.01,0.11,0.02,0.39-0.01,0.44l-1.36,1.91l0.29,0.09l-0.16,0.22l-0.34-0.16L17.16,33.29z   M22.02,32.98c0,0.17,0.11,0.43,0.34,0.36c0.01-0.01,0.02,0,0.02,0.01c-0.04,0.19-0.38,0.37-0.54,0.14c-0.14,0.3-0.11,0.57,0.2,0.74  c0.02,0.01,0.02,0.03,0,0.04c-0.18,0.13-0.46,0.1-0.59-0.15c-0.25,0.19-0.21,0.59-0.06,0.72c0,0-0.69,0.41-1.31,0.12  c-0.41-0.2-0.75-0.45-1.28-0.41c0.07-0.75,0.45-0.95,1.14-1.05c0.55-0.09,0.62-0.34,0.54-0.53c-0.19-0.05-0.53,0.12-0.53,0.12  c-0.06-0.1,0.03-0.21,0.03-0.21c-0.03-0.04-0.05-0.18-0.05-0.18c0.38,0,0.45-0.08,0.45-0.08c0.07-0.4-0.34-0.44-0.65-0.23  c-0.14-0.13-0.12-0.3-0.12-0.3c-0.04-0.02-0.07-0.09-0.07-0.12c0-0.09,0.46-0.35,0.57-0.38c0.03-0.13,0.2-0.32,0.68-0.27  c0.06-0.13-0.04-0.6-0.1-0.72c-0.02-0.04,0.01-0.06,0.05-0.03c0.17,0.11,0.34,0.5,0.45,0.51c0,0,0.54-0.29,0.57-0.27  c0.03,0.01,0.1,0.62,0.1,0.62c0.07,0.09,0.49,0,0.68,0.08c0.05,0.02,0.04,0.05,0,0.06c-0.14,0.02-0.58,0.21-0.65,0.33  C22.13,32.27,22.02,32.82,22.02,32.98z"/>
<g id="Isolatiemodus">
	<g>
		<path d="M49.5,31.57c0.48-0.14,0.72-0.38,0.72-0.94v-6.09l-0.78-0.25v-0.27c0.78-0.14,1.49-0.19,2.47-0.19    c1.87,0,2.77,0.73,2.77,2.1c0,1.23-0.68,2.03-1.79,2.37l1.75,2.34c0.3,0.4,0.71,0.69,1.15,0.84v0.24    c-0.24,0.16-0.55,0.27-0.94,0.27c-0.53,0-0.88-0.21-1.33-0.88l-1.64-2.48H51.3v2.62l0.78,0.2v0.27c-0.41,0.12-0.87,0.21-1.41,0.21    c-0.43,0-0.81-0.04-1.17-0.12V31.57z M51.78,28.04c0.97,0,1.76-0.63,1.76-1.92c0-1.02-0.64-1.6-1.71-1.6    c-0.16,0-0.37,0.02-0.53,0.05v3.47H51.78z"/>
		<path d="M56.36,31.6c0.34-0.12,0.66-0.37,0.66-0.67v-4.19l-0.79-0.33v-0.26c0.56-0.16,1.13-0.24,1.48-0.24h0.4l-0.06,0.67v4.71    l0.69,0.19v0.24c-0.42,0.15-0.81,0.21-1.44,0.21c-0.29,0-0.65-0.03-0.93-0.11V31.6z M56.88,24.06c0-0.38,0.27-0.73,0.71-0.73    c0.35,0,0.64,0.26,0.64,0.67c0,0.43-0.3,0.77-0.69,0.77C57.16,24.76,56.88,24.46,56.88,24.06z"/>
		<path d="M60.41,26.73l-0.79-0.33v-0.26c0.57-0.16,1.13-0.24,1.49-0.24h0.4l-0.07,0.69v5.57c0,2.03-0.61,2.67-1.4,2.67    c-0.27,0-0.55-0.1-0.69-0.3v-0.2c0.55,0,1.08-0.62,1.08-1.89V26.73z M60.28,24.06c0-0.38,0.27-0.73,0.71-0.73    c0.35,0,0.65,0.26,0.65,0.67c0,0.43-0.3,0.77-0.69,0.77C60.56,24.76,60.28,24.46,60.28,24.06z"/>
		<path d="M63.07,31.6c0.34-0.12,0.67-0.37,0.67-0.67v-7.19l-0.82-0.34v-0.27c0.57-0.16,1.14-0.22,1.49-0.22h0.42l-0.07,0.69v4.96    l0.68-0.6c0.67-0.57,1.28-1.43,1.28-1.98c0.22-0.07,0.41-0.1,0.66-0.1c0.19,0,0.34,0.04,0.5,0.11c-0.03,0.53-0.56,1.38-1.69,2.18    l-0.43,0.31l1.91,2.32c0.35,0.42,0.66,0.6,0.92,0.6v0.26c-0.27,0.19-0.56,0.26-0.92,0.26c-0.35,0-0.65-0.15-0.88-0.47l-2.02-2.67    v2.51l0.65,0.2v0.24c-0.46,0.15-0.82,0.2-1.4,0.2c-0.29,0-0.65-0.03-0.93-0.11V31.6z"/>
		<path d="M68.92,30.47c0.56,0.52,1.09,0.78,1.75,0.78c0.69,0,1.05-0.34,1.05-0.77c0-0.43-0.25-0.71-1.07-1.05l-0.62-0.26    c-0.72-0.31-1.12-0.83-1.12-1.54c0-0.98,0.87-1.82,2.16-1.82c0.99,0,1.39,0.3,1.39,0.77c0,0.19-0.02,0.35-0.06,0.52    c-0.4-0.27-0.94-0.47-1.41-0.47c-0.79,0-1.17,0.35-1.17,0.77c0,0.45,0.22,0.69,0.97,0.98l0.67,0.26c0.89,0.35,1.23,0.81,1.23,1.54    c0,0.96-0.92,1.82-2.31,1.82c-1.09,0-1.58-0.35-1.58-1.02C68.81,30.8,68.84,30.6,68.92,30.47z"/>
		<path d="M76.48,25.8c1.52,0,2.7,1.14,2.7,2.86c0,2.05-1.43,3.34-2.9,3.34c-1.5,0-2.72-1.05-2.72-2.86    C73.57,27.11,74.96,25.8,76.48,25.8z M76.36,31.29c0.83,0,1.7-0.81,1.7-2.51c0-1.45-0.78-2.26-1.66-2.26    c-0.86,0-1.7,0.86-1.7,2.49C74.7,30.52,75.48,31.29,76.36,31.29z"/>
		<path d="M80.02,26.56l-0.51-0.36v-0.3h2.37v0.3l-0.71,0.3l1.34,3.93h0.01l1.38-3.89l-0.71-0.33v-0.3h1.91v0.3l-0.35,0.29    l-2.21,5.47l-0.42,0.03L80.02,26.56z"/>
		<path d="M88.03,25.82c1.34,0,2.15,0.89,2.15,2.32c0,0.24,0,0.48-0.01,0.79H86.5c0,1.39,0.81,2.2,1.84,2.2    c0.61,0,1.28-0.21,1.75-0.53c0.03,0.06,0.05,0.2,0.05,0.32c0,0.56-0.82,1.08-2.13,1.08c-1.41,0-2.57-1.1-2.57-2.84    C85.44,26.99,86.74,25.82,88.03,25.82z M89.18,28.28c0-1.22-0.52-1.8-1.25-1.8c-0.68,0-1.4,0.82-1.4,1.8H89.18z"/>
		<path d="M91.24,31.6c0.32-0.12,0.66-0.37,0.66-0.67v-4.19l-0.81-0.33v-0.27c0.57-0.16,1.13-0.22,1.49-0.22h0.3v0.87h0.01    l0.35-0.38c0.34-0.36,0.67-0.55,1.09-0.55c0.43,0,0.65,0.19,0.65,0.53c0,0.24-0.08,0.51-0.2,0.74c-0.24-0.19-0.51-0.29-0.77-0.29    c-0.38,0-0.74,0.17-1.09,0.51v3.94l0.86,0.19v0.24c-0.42,0.15-0.83,0.21-1.54,0.21c-0.36,0-0.71-0.03-0.99-0.11V31.6z"/>
		<path d="M95.48,31.6c0.34-0.12,0.66-0.37,0.66-0.67v-7.19l-0.81-0.34v-0.27c0.56-0.16,1.07-0.22,1.49-0.22h0.4l-0.06,0.69v2.96    c0.45-0.43,1.02-0.68,1.8-0.68c1.05,0,1.74,0.66,1.74,1.94v3.47l0.64,0.19v0.24c-0.35,0.14-0.78,0.21-1.31,0.21    c-0.25,0-0.56-0.03-0.79-0.11V31.6c0.3-0.14,0.45-0.37,0.45-0.82v-2.37c0-1.22-0.5-1.67-1.26-1.67c-0.48,0-0.97,0.17-1.25,0.38    v4.17l0.69,0.19v0.24c-0.42,0.15-0.81,0.21-1.44,0.21c-0.29,0-0.65-0.03-0.93-0.11V31.6z"/>
		<path d="M104.85,25.82c1.34,0,2.15,0.89,2.15,2.32c0,0.24,0,0.48-0.01,0.79h-3.66c0,1.39,0.81,2.2,1.84,2.2    c0.61,0,1.28-0.21,1.75-0.53c0.03,0.06,0.05,0.2,0.05,0.32c0,0.56-0.82,1.08-2.13,1.08c-1.41,0-2.57-1.1-2.57-2.84    C102.26,26.99,103.56,25.82,104.85,25.82z M106.01,28.28c0-1.22-0.52-1.8-1.25-1.8c-0.68,0-1.4,0.82-1.4,1.8H106.01z"/>
		<path d="M108.06,31.6c0.34-0.12,0.66-0.37,0.66-0.67v-4.19l-0.79-0.33v-0.26c0.56-0.16,1.13-0.24,1.48-0.24h0.4l-0.06,0.67v4.71    l0.69,0.19v0.24c-0.42,0.15-0.81,0.21-1.44,0.21c-0.29,0-0.65-0.03-0.93-0.11V31.6z M108.59,24.06c0-0.38,0.27-0.73,0.71-0.73    c0.35,0,0.64,0.26,0.64,0.67c0,0.43-0.3,0.77-0.69,0.77C108.87,24.76,108.59,24.46,108.59,24.06z"/>
		<path d="M114.36,25.83c0.3,0,0.66,0.04,0.86,0.09v-2.18l-0.84-0.34v-0.27c0.57-0.16,1.18-0.22,1.54-0.22h0.4l-0.07,0.69v7.11    c0.09,0.25,0.24,0.51,0.47,0.72c-0.25,0.22-0.52,0.4-0.87,0.58c-0.25-0.2-0.47-0.48-0.6-0.74c-0.4,0.41-1.08,0.71-1.59,0.71    c-1.25,0-2.26-1.04-2.26-2.69C111.4,27.04,112.75,25.83,114.36,25.83z M115.23,30.77v-4.11c-0.21-0.07-0.57-0.14-0.91-0.14    c-1.05,0-1.85,0.83-1.85,2.55c0,1.35,0.71,2.08,1.49,2.08C114.44,31.16,114.95,31,115.23,30.77z"/>
	</g>
</g>
</svg>